<?xml version="1.0" encoding="utf-8"?>
<!DOCTYPE svg PUBLIC "-//W3C//DTD SVG 1.1//EN" "http://www.w3.org/Graphics/SVG/1.1/DTD/svg11.dtd">
<svg version="1.1" id="Layer_1" xmlns="http://www.w3.org/2000/svg" xmlns:xlink="http://www.w3.org/1999/xlink" x="0px" y="0px"
	 width="400px" height="66.455px" viewBox="206.424 493.69 400 66.455" enable-background="new 206.424 493.69 400 66.455"
	 xml:space="preserve">
<g>
	<defs>
		<rect id="SVGID_1_" width="816" height="1056"/>
	</defs>
	<clipPath id="SVGID_2_">
		<use xlink:href="#SVGID_1_"  overflow="visible"/>
	</clipPath>
	<g transform="matrix(1.3333333 0 0 -1.3333333 0 1056)" clip-path="url(#SVGID_2_)">
		<g>
			<path fill="#FAFAFA" d="M188.759,380.824c1.468,0,2.621-1.164,2.621-2.792s-1.153-2.792-2.621-2.792h-25.14
				c-1.466,0-2.619,1.279-2.619,2.908v33.754c0,1.63,1.153,2.911,2.619,2.911h25.14c1.468,0,2.621-1.164,2.621-2.793
				c0-1.63-1.153-2.794-2.621-2.794h-22.521v-10.94h17.284c1.468,0,2.62-1.164,2.62-2.794c0-1.629-1.152-2.793-2.62-2.793h-17.284
				v-11.874H188.759z"/>
			<path fill="#FAFAFA" d="M213.378,405.386v-27.237c0-1.629-1.152-2.909-2.618-2.909c-1.467,0-2.619,1.28-2.619,2.909v34.22
				c0,1.63,1.152,2.91,2.619,2.91c1.047,0,1.57-0.35,2.618-1.514l25.56-28.633v27.237c0,1.63,1.152,2.91,2.618,2.91
				c1.469,0,2.619-1.28,2.619-2.91v-34.22c0-1.629-1.151-2.909-2.619-2.909c-1.048,0-1.57,0.348-2.618,1.512L213.378,405.386z"/>
			<path fill="#FAFAFA" d="M276.508,409.46h-13.094c-1.467,0-2.619,1.164-2.619,2.793c0,1.63,1.152,2.794,2.619,2.794h31.425
				c1.466,0,2.619-1.164,2.619-2.794c0-1.629-1.154-2.793-2.619-2.793h-13.095v-31.311c0-1.629-1.152-2.908-2.618-2.908
				c-1.466,0-2.618,1.28-2.618,2.908V409.46z"/>
			<path fill="#FAFAFA" d="M319.435,409.471v-13.036h13.722c3.667,0,6.18,2.794,6.18,6.517c0,3.727-2.514,6.519-6.18,6.519H319.435z
				 M333.157,415.058c6.286,0,11.419-5.121,11.419-12.106c0-6.167-3.982-10.824-9.219-11.872l9.534-11.173
				c0.94-1.048,1.257-2.91,0.209-3.957c-1.048-1.165-3.038-0.817-4.085,0.464l-12.361,14.434h-9.219v-12.803
				c0-1.631-1.154-2.795-2.619-2.795c-1.466,0-2.618,1.281-2.618,2.911v33.987c0,1.63,1.152,2.911,2.618,2.911H333.157z"/>
			<path fill="#FAFAFA" d="M374.173,393.008l7.102,16.344l7.104-16.344H374.173z M399.778,379.013l-15.476,35.85
				c-0.527,1.235-1.659,1.972-3.027,1.972c-1.365,0-2.497-0.738-3.019-1.967l-15.49-35.873c-0.558-1.341-0.096-2.834,1.162-3.582
				c0.321-0.166,0.658-0.248,1.005-0.248c0.907,0,1.731,0.575,2.157,1.518l4.828,11.112h18.715l4.837-11.125
				c0.418-0.93,1.242-1.505,2.152-1.505c0.346,0,0.684,0.083,1.065,0.281C399.879,376.161,400.343,377.654,399.778,379.013"/>
		</g>
		<path fill="#71C5DB" d="M440.013,407.254l-15.658,2.724c-0.68,0.118-1.236-0.349-1.236-1.039v-32.106
			c0-0.69,0.555-1.151,1.233-1.025l15.664,2.911c0.678,0.126,1.232,0.794,1.232,1.484v25.583
			C441.248,406.474,440.693,407.135,440.013,407.254"/>
		<path fill="#71C5DB" d="M449.746,416.795h-31.77c-0.689,0-1.253-0.564-1.253-1.253v-39.007c0-0.689,0.564-1.254,1.253-1.254h2.695
			c0.689,0,1.254,0.565,1.254,1.254v33.226c0,0.689,0.564,1.253,1.254,1.253h21.361c0.689,0,1.255-0.564,1.255-1.253v-33.226
			c0-0.689,0.564-1.254,1.254-1.254h2.698c0.689,0,1.254,0.565,1.254,1.254v39.007C451,416.231,450.435,416.795,449.746,416.795"/>
	</g>
</g>
</svg>
